<svg xmlns="http://www.w3.org/2000/svg" viewBox="0 0 180 180"><rect width="100%" height="100%" fill="#fff"/><g fill="#1c2530"><rect x="16" y="16" width="4" height="4"/><rect x="20" y="16" width="4" height="4"/><rect x="24" y="16" width="4" height="4"/><rect x="28" y="16" width="4" height="4"/><rect x="32" y="16" width="4" height="4"/><rect x="36" y="16" width="4" height="4"/><rect x="40" y="16" width="4" height="4"/><rect x="56" y="16" width="4" height="4"/><rect x="68" y="16" width="4" height="4"/><rect x="76" y="16" width="4" height="4"/><rect x="84" y="16" width="4" height="4"/><rect x="100" y="16" width="4" height="4"/><rect x="108" y="16" width="4" height="4"/><rect x="120" y="16" width="4" height="4"/><rect x="128" y="16" width="4" height="4"/><rect x="136" y="16" width="4" height="4"/><rect x="140" y="16" width="4" height="4"/><rect x="144" y="16" width="4" height="4"/><rect x="148" y="16" width="4" height="4"/><rect x="152" y="16" width="4" height="4"/><rect x="156" y="16" width="4" height="4"/><rect x="160" y="16" width="4" height="4"/><rect x="16" y="20" width="4" height="4"/><rect x="40" y="20" width="4" height="4"/><rect x="56" y="20" width="4" height="4"/><rect x="60" y="20" width="4" height="4"/><rect x="72" y="20" width="4" height="4"/><rect x="76" y="20" width="4" height="4"/><rect x="88" y="20" width="4" height="4"/><rect x="96" y="20" width="4" height="4"/><rect x="100" y="20" width="4" height="4"/><rect x="112" y="20" width="4" height="4"/><rect x="116" y="20" width="4" height="4"/><rect x="120" y="20" width="4" height="4"/><rect x="124" y="20" width="4" height="4"/><rect x="128" y="20" width="4" height="4"/><rect x="136" y="20" width="4" height="4"/><rect x="160" y="20" width="4" height="4"/><rect x="16" y="24" width="4" height="4"/><rect x="24" y="24" width="4" height="4"/><rect x="28" y="24" width="4" height="4"/><rect x="32" y="24" width="4" height="4"/><rect x="40" y="24" width="4" height="4"/><rect x="48" y="24" width="4" height="4"/><rect x="60" y="24" width="4" height="4"/><rect x="64" y="24" width="4" height="4"/><rect x="72" y="24" width="4" height="4"/><rect x="76" y="24" width="4" height="4"/><rect x="88" y="24" width="4" height="4"/><rect x="100" y="24" width="4" height="4"/><rect x="104" y="24" width="4" height="4"/><rect x="120" y="24" width="4" height="4"/><rect x="136" y="24" width="4" height="4"/><rect x="144" y="24" width="4" height="4"/><rect x="148" y="24" width="4" height="4"/><rect x="152" y="24" width="4" height="4"/><rect x="160" y="24" width="4" height="4"/><rect x="16" y="28" width="4" height="4"/><rect x="24" y="28" width="4" height="4"/><rect x="28" y="28" width="4" height="4"/><rect x="32" y="28" width="4" height="4"/><rect x="40" y="28" width="4" height="4"/><rect x="48" y="28" width="4" height="4"/><rect x="56" y="28" width="4" height="4"/><rect x="68" y="28" width="4" height="4"/><rect x="76" y="28" width="4" height="4"/><rect x="84" y="28" width="4" height="4"/><rect x="88" y="28" width="4" height="4"/><rect x="104" y="28" width="4" height="4"/><rect x="112" y="28" width="4" height="4"/><rect x="116" y="28" width="4" height="4"/><rect x="120" y="28" width="4" height="4"/><rect x="136" y="28" width="4" height="4"/><rect x="144" y="28" width="4" height="4"/><rect x="148" y="28" width="4" height="4"/><rect x="152" y="28" width="4" height="4"/><rect x="160" y="28" width="4" height="4"/><rect x="16" y="32" width="4" height="4"/><rect x="24" y="32" width="4" height="4"/><rect x="28" y="32" width="4" height="4"/><rect x="32" y="32" width="4" height="4"/><rect x="40" y="32" width="4" height="4"/><rect x="48" y="32" width="4" height="4"/><rect x="64" y="32" width="4" height="4"/><rect x="76" y="32" width="4" height="4"/><rect x="84" y="32" width="4" height="4"/><rect x="88" y="32" width="4" height="4"/><rect x="92" y="32" width="4" height="4"/><rect x="96" y="32" width="4" height="4"/><rect x="100" y="32" width="4" height="4"/><rect x="104" y="32" width="4" height="4"/><rect x="108" y="32" width="4" height="4"/><rect x="116" y="32" width="4" height="4"/><rect x="128" y="32" width="4" height="4"/><rect x="136" y="32" width="4" height="4"/><rect x="144" y="32" width="4" height="4"/><rect x="148" y="32" width="4" height="4"/><rect x="152" y="32" width="4" height="4"/><rect x="160" y="32" width="4" height="4"/><rect x="16" y="36" width="4" height="4"/><rect x="40" y="36" width="4" height="4"/><rect x="48" y="36" width="4" height="4"/><rect x="52" y="36" width="4" height="4"/><rect x="56" y="36" width="4" height="4"/><rect x="60" y="36" width="4" height="4"/><rect x="72" y="36" width="4" height="4"/><rect x="80" y="36" width="4" height="4"/><rect x="84" y="36" width="4" height="4"/><rect x="96" y="36" width="4" height="4"/><rect x="100" y="36" width="4" height="4"/><rect x="124" y="36" width="4" height="4"/><rect x="128" y="36" width="4" height="4"/><rect x="136" y="36" width="4" height="4"/><rect x="160" y="36" width="4" height="4"/><rect x="16" y="40" width="4" height="4"/><rect x="20" y="40" width="4" height="4"/><rect x="24" y="40" width="4" height="4"/><rect x="28" y="40" width="4" height="4"/><rect x="32" y="40" width="4" height="4"/><rect x="36" y="40" width="4" height="4"/><rect x="40" y="40" width="4" height="4"/><rect x="48" y="40" width="4" height="4"/><rect x="56" y="40" width="4" height="4"/><rect x="64" y="40" width="4" height="4"/><rect x="72" y="40" width="4" height="4"/><rect x="80" y="40" width="4" height="4"/><rect x="88" y="40" width="4" height="4"/><rect x="96" y="40" width="4" height="4"/><rect x="104" y="40" width="4" height="4"/><rect x="112" y="40" width="4" height="4"/><rect x="120" y="40" width="4" height="4"/><rect x="128" y="40" width="4" height="4"/><rect x="136" y="40" width="4" height="4"/><rect x="140" y="40" width="4" height="4"/><rect x="144" y="40" width="4" height="4"/><rect x="148" y="40" width="4" height="4"/><rect x="152" y="40" width="4" height="4"/><rect x="156" y="40" width="4" height="4"/><rect x="160" y="40" width="4" height="4"/><rect x="48" y="44" width="4" height="4"/><rect x="60" y="44" width="4" height="4"/><rect x="68" y="44" width="4" height="4"/><rect x="80" y="44" width="4" height="4"/><rect x="84" y="44" width="4" height="4"/><rect x="88" y="44" width="4" height="4"/><rect x="92" y="44" width="4" height="4"/><rect x="100" y="44" width="4" height="4"/><rect x="104" y="44" width="4" height="4"/><rect x="120" y="44" width="4" height="4"/><rect x="128" y="44" width="4" height="4"/><rect x="16" y="48" width="4" height="4"/><rect x="24" y="48" width="4" height="4"/><rect x="28" y="48" width="4" height="4"/><rect x="32" y="48" width="4" height="4"/><rect x="36" y="48" width="4" height="4"/><rect x="40" y="48" width="4" height="4"/><rect x="52" y="48" width="4" height="4"/><rect x="60" y="48" width="4" height="4"/><rect x="72" y="48" width="4" height="4"/><rect x="80" y="48" width="4" height="4"/><rect x="104" y="48" width="4" height="4"/><rect x="108" y="48" width="4" height="4"/><rect x="116" y="48" width="4" height="4"/><rect x="120" y="48" width="4" height="4"/><rect x="136" y="48" width="4" height="4"/><rect x="140" y="48" width="4" height="4"/><rect x="144" y="48" width="4" height="4"/><rect x="148" y="48" width="4" height="4"/><rect x="152" y="48" width="4" height="4"/><rect x="24" y="52" width="4" height="4"/><rect x="28" y="52" width="4" height="4"/><rect x="32" y="52" width="4" height="4"/><rect x="44" y="52" width="4" height="4"/><rect x="52" y="52" width="4" height="4"/><rect x="56" y="52" width="4" height="4"/><rect x="64" y="52" width="4" height="4"/><rect x="76" y="52" width="4" height="4"/><rect x="84" y="52" width="4" height="4"/><rect x="88" y="52" width="4" height="4"/><rect x="96" y="52" width="4" height="4"/><rect x="100" y="52" width="4" height="4"/><rect x="104" y="52" width="4" height="4"/><rect x="108" y="52" width="4" height="4"/><rect x="116" y="52" width="4" height="4"/><rect x="124" y="52" width="4" height="4"/><rect x="128" y="52" width="4" height="4"/><rect x="136" y="52" width="4" height="4"/><rect x="140" y="52" width="4" height="4"/><rect x="156" y="52" width="4" height="4"/><rect x="40" y="56" width="4" height="4"/><rect x="44" y="56" width="4" height="4"/><rect x="48" y="56" width="4" height="4"/><rect x="56" y="56" width="4" height="4"/><rect x="72" y="56" width="4" height="4"/><rect x="76" y="56" width="4" height="4"/><rect x="80" y="56" width="4" height="4"/><rect x="84" y="56" width="4" height="4"/><rect x="92" y="56" width="4" height="4"/><rect x="100" y="56" width="4" height="4"/><rect x="120" y="56" width="4" height="4"/><rect x="124" y="56" width="4" height="4"/><rect x="132" y="56" width="4" height="4"/><rect x="136" y="56" width="4" height="4"/><rect x="140" y="56" width="4" height="4"/><rect x="156" y="56" width="4" height="4"/><rect x="160" y="56" width="4" height="4"/><rect x="16" y="60" width="4" height="4"/><rect x="24" y="60" width="4" height="4"/><rect x="28" y="60" width="4" height="4"/><rect x="36" y="60" width="4" height="4"/><rect x="44" y="60" width="4" height="4"/><rect x="64" y="60" width="4" height="4"/><rect x="72" y="60" width="4" height="4"/><rect x="76" y="60" width="4" height="4"/><rect x="92" y="60" width="4" height="4"/><rect x="96" y="60" width="4" height="4"/><rect x="100" y="60" width="4" height="4"/><rect x="108" y="60" width="4" height="4"/><rect x="112" y="60" width="4" height="4"/><rect x="124" y="60" width="4" height="4"/><rect x="132" y="60" width="4" height="4"/><rect x="140" y="60" width="4" height="4"/><rect x="144" y="60" width="4" height="4"/><rect x="160" y="60" width="4" height="4"/><rect x="32" y="64" width="4" height="4"/><rect x="40" y="64" width="4" height="4"/><rect x="48" y="64" width="4" height="4"/><rect x="52" y="64" width="4" height="4"/><rect x="56" y="64" width="4" height="4"/><rect x="60" y="64" width="4" height="4"/><rect x="64" y="64" width="4" height="4"/><rect x="76" y="64" width="4" height="4"/><rect x="84" y="64" width="4" height="4"/><rect x="88" y="64" width="4" height="4"/><rect x="92" y="64" width="4" height="4"/><rect x="104" y="64" width="4" height="4"/><rect x="112" y="64" width="4" height="4"/><rect x="116" y="64" width="4" height="4"/><rect x="120" y="64" width="4" height="4"/><rect x="124" y="64" width="4" height="4"/><rect x="132" y="64" width="4" height="4"/><rect x="136" y="64" width="4" height="4"/><rect x="140" y="64" width="4" height="4"/><rect x="144" y="64" width="4" height="4"/><rect x="152" y="64" width="4" height="4"/><rect x="156" y="64" width="4" height="4"/><rect x="160" y="64" width="4" height="4"/><rect x="16" y="68" width="4" height="4"/><rect x="24" y="68" width="4" height="4"/><rect x="32" y="68" width="4" height="4"/><rect x="44" y="68" width="4" height="4"/><rect x="48" y="68" width="4" height="4"/><rect x="64" y="68" width="4" height="4"/><rect x="68" y="68" width="4" height="4"/><rect x="92" y="68" width="4" height="4"/><rect x="96" y="68" width="4" height="4"/><rect x="100" y="68" width="4" height="4"/><rect x="104" y="68" width="4" height="4"/><rect x="108" y="68" width="4" height="4"/><rect x="116" y="68" width="4" height="4"/><rect x="128" y="68" width="4" height="4"/><rect x="132" y="68" width="4" height="4"/><rect x="140" y="68" width="4" height="4"/><rect x="32" y="72" width="4" height="4"/><rect x="36" y="72" width="4" height="4"/><rect x="40" y="72" width="4" height="4"/><rect x="44" y="72" width="4" height="4"/><rect x="48" y="72" width="4" height="4"/><rect x="52" y="72" width="4" height="4"/><rect x="64" y="72" width="4" height="4"/><rect x="68" y="72" width="4" height="4"/><rect x="72" y="72" width="4" height="4"/><rect x="76" y="72" width="4" height="4"/><rect x="80" y="72" width="4" height="4"/><rect x="88" y="72" width="4" height="4"/><rect x="100" y="72" width="4" height="4"/><rect x="104" y="72" width="4" height="4"/><rect x="116" y="72" width="4" height="4"/><rect x="120" y="72" width="4" height="4"/><rect x="124" y="72" width="4" height="4"/><rect x="128" y="72" width="4" height="4"/><rect x="136" y="72" width="4" height="4"/><rect x="140" y="72" width="4" height="4"/><rect x="144" y="72" width="4" height="4"/><rect x="148" y="72" width="4" height="4"/><rect x="156" y="72" width="4" height="4"/><rect x="160" y="72" width="4" height="4"/><rect x="16" y="76" width="4" height="4"/><rect x="32" y="76" width="4" height="4"/><rect x="36" y="76" width="4" height="4"/><rect x="48" y="76" width="4" height="4"/><rect x="52" y="76" width="4" height="4"/><rect x="56" y="76" width="4" height="4"/><rect x="60" y="76" width="4" height="4"/><rect x="64" y="76" width="4" height="4"/><rect x="68" y="76" width="4" height="4"/><rect x="72" y="76" width="4" height="4"/><rect x="76" y="76" width="4" height="4"/><rect x="92" y="76" width="4" height="4"/><rect x="100" y="76" width="4" height="4"/><rect x="108" y="76" width="4" height="4"/><rect x="120" y="76" width="4" height="4"/><rect x="128" y="76" width="4" height="4"/><rect x="132" y="76" width="4" height="4"/><rect x="136" y="76" width="4" height="4"/><rect x="140" y="76" width="4" height="4"/><rect x="144" y="76" width="4" height="4"/><rect x="156" y="76" width="4" height="4"/><rect x="160" y="76" width="4" height="4"/><rect x="16" y="80" width="4" height="4"/><rect x="24" y="80" width="4" height="4"/><rect x="40" y="80" width="4" height="4"/><rect x="48" y="80" width="4" height="4"/><rect x="60" y="80" width="4" height="4"/><rect x="64" y="80" width="4" height="4"/><rect x="72" y="80" width="4" height="4"/><rect x="76" y="80" width="4" height="4"/><rect x="88" y="80" width="4" height="4"/><rect x="96" y="80" width="4" height="4"/><rect x="104" y="80" width="4" height="4"/><rect x="108" y="80" width="4" height="4"/><rect x="116" y="80" width="4" height="4"/><rect x="120" y="80" width="4" height="4"/><rect x="128" y="80" width="4" height="4"/><rect x="132" y="80" width="4" height="4"/><rect x="136" y="80" width="4" height="4"/><rect x="152" y="80" width="4" height="4"/><rect x="156" y="80" width="4" height="4"/><rect x="160" y="80" width="4" height="4"/><rect x="24" y="84" width="4" height="4"/><rect x="28" y="84" width="4" height="4"/><rect x="32" y="84" width="4" height="4"/><rect x="44" y="84" width="4" height="4"/><rect x="60" y="84" width="4" height="4"/><rect x="76" y="84" width="4" height="4"/><rect x="80" y="84" width="4" height="4"/><rect x="84" y="84" width="4" height="4"/><rect x="100" y="84" width="4" height="4"/><rect x="120" y="84" width="4" height="4"/><rect x="132" y="84" width="4" height="4"/><rect x="136" y="84" width="4" height="4"/><rect x="140" y="84" width="4" height="4"/><rect x="148" y="84" width="4" height="4"/><rect x="156" y="84" width="4" height="4"/><rect x="16" y="88" width="4" height="4"/><rect x="24" y="88" width="4" height="4"/><rect x="28" y="88" width="4" height="4"/><rect x="36" y="88" width="4" height="4"/><rect x="40" y="88" width="4" height="4"/><rect x="52" y="88" width="4" height="4"/><rect x="60" y="88" width="4" height="4"/><rect x="68" y="88" width="4" height="4"/><rect x="72" y="88" width="4" height="4"/><rect x="84" y="88" width="4" height="4"/><rect x="96" y="88" width="4" height="4"/><rect x="112" y="88" width="4" height="4"/><rect x="120" y="88" width="4" height="4"/><rect x="124" y="88" width="4" height="4"/><rect x="132" y="88" width="4" height="4"/><rect x="136" y="88" width="4" height="4"/><rect x="140" y="88" width="4" height="4"/><rect x="148" y="88" width="4" height="4"/><rect x="152" y="88" width="4" height="4"/><rect x="156" y="88" width="4" height="4"/><rect x="160" y="88" width="4" height="4"/><rect x="28" y="92" width="4" height="4"/><rect x="44" y="92" width="4" height="4"/><rect x="60" y="92" width="4" height="4"/><rect x="64" y="92" width="4" height="4"/><rect x="72" y="92" width="4" height="4"/><rect x="80" y="92" width="4" height="4"/><rect x="100" y="92" width="4" height="4"/><rect x="104" y="92" width="4" height="4"/><rect x="112" y="92" width="4" height="4"/><rect x="120" y="92" width="4" height="4"/><rect x="132" y="92" width="4" height="4"/><rect x="144" y="92" width="4" height="4"/><rect x="160" y="92" width="4" height="4"/><rect x="40" y="96" width="4" height="4"/><rect x="48" y="96" width="4" height="4"/><rect x="60" y="96" width="4" height="4"/><rect x="72" y="96" width="4" height="4"/><rect x="80" y="96" width="4" height="4"/><rect x="84" y="96" width="4" height="4"/><rect x="96" y="96" width="4" height="4"/><rect x="112" y="96" width="4" height="4"/><rect x="116" y="96" width="4" height="4"/><rect x="124" y="96" width="4" height="4"/><rect x="132" y="96" width="4" height="4"/><rect x="136" y="96" width="4" height="4"/><rect x="144" y="96" width="4" height="4"/><rect x="152" y="96" width="4" height="4"/><rect x="16" y="100" width="4" height="4"/><rect x="32" y="100" width="4" height="4"/><rect x="36" y="100" width="4" height="4"/><rect x="44" y="100" width="4" height="4"/><rect x="48" y="100" width="4" height="4"/><rect x="56" y="100" width="4" height="4"/><rect x="64" y="100" width="4" height="4"/><rect x="68" y="100" width="4" height="4"/><rect x="72" y="100" width="4" height="4"/><rect x="84" y="100" width="4" height="4"/><rect x="88" y="100" width="4" height="4"/><rect x="92" y="100" width="4" height="4"/><rect x="96" y="100" width="4" height="4"/><rect x="108" y="100" width="4" height="4"/><rect x="112" y="100" width="4" height="4"/><rect x="128" y="100" width="4" height="4"/><rect x="132" y="100" width="4" height="4"/><rect x="148" y="100" width="4" height="4"/><rect x="156" y="100" width="4" height="4"/><rect x="20" y="104" width="4" height="4"/><rect x="28" y="104" width="4" height="4"/><rect x="40" y="104" width="4" height="4"/><rect x="48" y="104" width="4" height="4"/><rect x="60" y="104" width="4" height="4"/><rect x="64" y="104" width="4" height="4"/><rect x="68" y="104" width="4" height="4"/><rect x="76" y="104" width="4" height="4"/><rect x="80" y="104" width="4" height="4"/><rect x="84" y="104" width="4" height="4"/><rect x="96" y="104" width="4" height="4"/><rect x="100" y="104" width="4" height="4"/><rect x="120" y="104" width="4" height="4"/><rect x="124" y="104" width="4" height="4"/><rect x="128" y="104" width="4" height="4"/><rect x="136" y="104" width="4" height="4"/><rect x="140" y="104" width="4" height="4"/><rect x="144" y="104" width="4" height="4"/><rect x="148" y="104" width="4" height="4"/><rect x="156" y="104" width="4" height="4"/><rect x="160" y="104" width="4" height="4"/><rect x="24" y="108" width="4" height="4"/><rect x="28" y="108" width="4" height="4"/><rect x="32" y="108" width="4" height="4"/><rect x="36" y="108" width="4" height="4"/><rect x="52" y="108" width="4" height="4"/><rect x="60" y="108" width="4" height="4"/><rect x="64" y="108" width="4" height="4"/><rect x="72" y="108" width="4" height="4"/><rect x="76" y="108" width="4" height="4"/><rect x="80" y="108" width="4" height="4"/><rect x="84" y="108" width="4" height="4"/><rect x="88" y="108" width="4" height="4"/><rect x="100" y="108" width="4" height="4"/><rect x="104" y="108" width="4" height="4"/><rect x="128" y="108" width="4" height="4"/><rect x="140" y="108" width="4" height="4"/><rect x="144" y="108" width="4" height="4"/><rect x="156" y="108" width="4" height="4"/><rect x="160" y="108" width="4" height="4"/><rect x="28" y="112" width="4" height="4"/><rect x="32" y="112" width="4" height="4"/><rect x="36" y="112" width="4" height="4"/><rect x="40" y="112" width="4" height="4"/><rect x="44" y="112" width="4" height="4"/><rect x="48" y="112" width="4" height="4"/><rect x="60" y="112" width="4" height="4"/><rect x="64" y="112" width="4" height="4"/><rect x="68" y="112" width="4" height="4"/><rect x="72" y="112" width="4" height="4"/><rect x="80" y="112" width="4" height="4"/><rect x="104" y="112" width="4" height="4"/><rect x="108" y="112" width="4" height="4"/><rect x="116" y="112" width="4" height="4"/><rect x="120" y="112" width="4" height="4"/><rect x="124" y="112" width="4" height="4"/><rect x="128" y="112" width="4" height="4"/><rect x="132" y="112" width="4" height="4"/><rect x="136" y="112" width="4" height="4"/><rect x="152" y="112" width="4" height="4"/><rect x="160" y="112" width="4" height="4"/><rect x="16" y="116" width="4" height="4"/><rect x="20" y="116" width="4" height="4"/><rect x="32" y="116" width="4" height="4"/><rect x="36" y="116" width="4" height="4"/><rect x="48" y="116" width="4" height="4"/><rect x="68" y="116" width="4" height="4"/><rect x="72" y="116" width="4" height="4"/><rect x="76" y="116" width="4" height="4"/><rect x="88" y="116" width="4" height="4"/><rect x="96" y="116" width="4" height="4"/><rect x="108" y="116" width="4" height="4"/><rect x="112" y="116" width="4" height="4"/><rect x="116" y="116" width="4" height="4"/><rect x="132" y="116" width="4" height="4"/><rect x="136" y="116" width="4" height="4"/><rect x="140" y="116" width="4" height="4"/><rect x="148" y="116" width="4" height="4"/><rect x="152" y="116" width="4" height="4"/><rect x="16" y="120" width="4" height="4"/><rect x="24" y="120" width="4" height="4"/><rect x="32" y="120" width="4" height="4"/><rect x="40" y="120" width="4" height="4"/><rect x="44" y="120" width="4" height="4"/><rect x="48" y="120" width="4" height="4"/><rect x="52" y="120" width="4" height="4"/><rect x="60" y="120" width="4" height="4"/><rect x="64" y="120" width="4" height="4"/><rect x="72" y="120" width="4" height="4"/><rect x="76" y="120" width="4" height="4"/><rect x="80" y="120" width="4" height="4"/><rect x="88" y="120" width="4" height="4"/><rect x="92" y="120" width="4" height="4"/><rect x="104" y="120" width="4" height="4"/><rect x="112" y="120" width="4" height="4"/><rect x="116" y="120" width="4" height="4"/><rect x="120" y="120" width="4" height="4"/><rect x="124" y="120" width="4" height="4"/><rect x="128" y="120" width="4" height="4"/><rect x="132" y="120" width="4" height="4"/><rect x="136" y="120" width="4" height="4"/><rect x="140" y="120" width="4" height="4"/><rect x="156" y="120" width="4" height="4"/><rect x="160" y="120" width="4" height="4"/><rect x="16" y="124" width="4" height="4"/><rect x="24" y="124" width="4" height="4"/><rect x="32" y="124" width="4" height="4"/><rect x="44" y="124" width="4" height="4"/><rect x="56" y="124" width="4" height="4"/><rect x="60" y="124" width="4" height="4"/><rect x="76" y="124" width="4" height="4"/><rect x="92" y="124" width="4" height="4"/><rect x="96" y="124" width="4" height="4"/><rect x="100" y="124" width="4" height="4"/><rect x="104" y="124" width="4" height="4"/><rect x="108" y="124" width="4" height="4"/><rect x="112" y="124" width="4" height="4"/><rect x="124" y="124" width="4" height="4"/><rect x="128" y="124" width="4" height="4"/><rect x="132" y="124" width="4" height="4"/><rect x="140" y="124" width="4" height="4"/><rect x="144" y="124" width="4" height="4"/><rect x="148" y="124" width="4" height="4"/><rect x="160" y="124" width="4" height="4"/><rect x="16" y="128" width="4" height="4"/><rect x="24" y="128" width="4" height="4"/><rect x="32" y="128" width="4" height="4"/><rect x="36" y="128" width="4" height="4"/><rect x="40" y="128" width="4" height="4"/><rect x="44" y="128" width="4" height="4"/><rect x="48" y="128" width="4" height="4"/><rect x="64" y="128" width="4" height="4"/><rect x="72" y="128" width="4" height="4"/><rect x="76" y="128" width="4" height="4"/><rect x="80" y="128" width="4" height="4"/><rect x="84" y="128" width="4" height="4"/><rect x="92" y="128" width="4" height="4"/><rect x="104" y="128" width="4" height="4"/><rect x="112" y="128" width="4" height="4"/><rect x="116" y="128" width="4" height="4"/><rect x="120" y="128" width="4" height="4"/><rect x="124" y="128" width="4" height="4"/><rect x="128" y="128" width="4" height="4"/><rect x="132" y="128" width="4" height="4"/><rect x="136" y="128" width="4" height="4"/><rect x="140" y="128" width="4" height="4"/><rect x="144" y="128" width="4" height="4"/><rect x="152" y="128" width="4" height="4"/><rect x="48" y="132" width="4" height="4"/><rect x="64" y="132" width="4" height="4"/><rect x="68" y="132" width="4" height="4"/><rect x="92" y="132" width="4" height="4"/><rect x="96" y="132" width="4" height="4"/><rect x="104" y="132" width="4" height="4"/><rect x="108" y="132" width="4" height="4"/><rect x="116" y="132" width="4" height="4"/><rect x="124" y="132" width="4" height="4"/><rect x="128" y="132" width="4" height="4"/><rect x="144" y="132" width="4" height="4"/><rect x="148" y="132" width="4" height="4"/><rect x="156" y="132" width="4" height="4"/><rect x="16" y="136" width="4" height="4"/><rect x="20" y="136" width="4" height="4"/><rect x="24" y="136" width="4" height="4"/><rect x="28" y="136" width="4" height="4"/><rect x="32" y="136" width="4" height="4"/><rect x="36" y="136" width="4" height="4"/><rect x="40" y="136" width="4" height="4"/><rect x="52" y="136" width="4" height="4"/><rect x="56" y="136" width="4" height="4"/><rect x="64" y="136" width="4" height="4"/><rect x="68" y="136" width="4" height="4"/><rect x="72" y="136" width="4" height="4"/><rect x="76" y="136" width="4" height="4"/><rect x="80" y="136" width="4" height="4"/><rect x="88" y="136" width="4" height="4"/><rect x="96" y="136" width="4" height="4"/><rect x="104" y="136" width="4" height="4"/><rect x="116" y="136" width="4" height="4"/><rect x="120" y="136" width="4" height="4"/><rect x="128" y="136" width="4" height="4"/><rect x="136" y="136" width="4" height="4"/><rect x="144" y="136" width="4" height="4"/><rect x="152" y="136" width="4" height="4"/><rect x="156" y="136" width="4" height="4"/><rect x="160" y="136" width="4" height="4"/><rect x="16" y="140" width="4" height="4"/><rect x="40" y="140" width="4" height="4"/><rect x="48" y="140" width="4" height="4"/><rect x="52" y="140" width="4" height="4"/><rect x="56" y="140" width="4" height="4"/><rect x="60" y="140" width="4" height="4"/><rect x="68" y="140" width="4" height="4"/><rect x="76" y="140" width="4" height="4"/><rect x="96" y="140" width="4" height="4"/><rect x="100" y="140" width="4" height="4"/><rect x="104" y="140" width="4" height="4"/><rect x="108" y="140" width="4" height="4"/><rect x="120" y="140" width="4" height="4"/><rect x="128" y="140" width="4" height="4"/><rect x="144" y="140" width="4" height="4"/><rect x="148" y="140" width="4" height="4"/><rect x="16" y="144" width="4" height="4"/><rect x="24" y="144" width="4" height="4"/><rect x="28" y="144" width="4" height="4"/><rect x="32" y="144" width="4" height="4"/><rect x="40" y="144" width="4" height="4"/><rect x="48" y="144" width="4" height="4"/><rect x="52" y="144" width="4" height="4"/><rect x="64" y="144" width="4" height="4"/><rect x="68" y="144" width="4" height="4"/><rect x="72" y="144" width="4" height="4"/><rect x="88" y="144" width="4" height="4"/><rect x="104" y="144" width="4" height="4"/><rect x="108" y="144" width="4" height="4"/><rect x="116" y="144" width="4" height="4"/><rect x="124" y="144" width="4" height="4"/><rect x="128" y="144" width="4" height="4"/><rect x="132" y="144" width="4" height="4"/><rect x="136" y="144" width="4" height="4"/><rect x="140" y="144" width="4" height="4"/><rect x="144" y="144" width="4" height="4"/><rect x="152" y="144" width="4" height="4"/><rect x="156" y="144" width="4" height="4"/><rect x="160" y="144" width="4" height="4"/><rect x="16" y="148" width="4" height="4"/><rect x="24" y="148" width="4" height="4"/><rect x="28" y="148" width="4" height="4"/><rect x="32" y="148" width="4" height="4"/><rect x="40" y="148" width="4" height="4"/><rect x="48" y="148" width="4" height="4"/><rect x="52" y="148" width="4" height="4"/><rect x="56" y="148" width="4" height="4"/><rect x="60" y="148" width="4" height="4"/><rect x="76" y="148" width="4" height="4"/><rect x="80" y="148" width="4" height="4"/><rect x="100" y="148" width="4" height="4"/><rect x="108" y="148" width="4" height="4"/><rect x="112" y="148" width="4" height="4"/><rect x="124" y="148" width="4" height="4"/><rect x="128" y="148" width="4" height="4"/><rect x="136" y="148" width="4" height="4"/><rect x="144" y="148" width="4" height="4"/><rect x="152" y="148" width="4" height="4"/><rect x="160" y="148" width="4" height="4"/><rect x="16" y="152" width="4" height="4"/><rect x="24" y="152" width="4" height="4"/><rect x="28" y="152" width="4" height="4"/><rect x="32" y="152" width="4" height="4"/><rect x="40" y="152" width="4" height="4"/><rect x="48" y="152" width="4" height="4"/><rect x="56" y="152" width="4" height="4"/><rect x="68" y="152" width="4" height="4"/><rect x="88" y="152" width="4" height="4"/><rect x="116" y="152" width="4" height="4"/><rect x="128" y="152" width="4" height="4"/><rect x="156" y="152" width="4" height="4"/><rect x="160" y="152" width="4" height="4"/><rect x="16" y="156" width="4" height="4"/><rect x="40" y="156" width="4" height="4"/><rect x="56" y="156" width="4" height="4"/><rect x="68" y="156" width="4" height="4"/><rect x="80" y="156" width="4" height="4"/><rect x="88" y="156" width="4" height="4"/><rect x="92" y="156" width="4" height="4"/><rect x="96" y="156" width="4" height="4"/><rect x="100" y="156" width="4" height="4"/><rect x="104" y="156" width="4" height="4"/><rect x="120" y="156" width="4" height="4"/><rect x="124" y="156" width="4" height="4"/><rect x="128" y="156" width="4" height="4"/><rect x="132" y="156" width="4" height="4"/><rect x="136" y="156" width="4" height="4"/><rect x="144" y="156" width="4" height="4"/><rect x="160" y="156" width="4" height="4"/><rect x="16" y="160" width="4" height="4"/><rect x="20" y="160" width="4" height="4"/><rect x="24" y="160" width="4" height="4"/><rect x="28" y="160" width="4" height="4"/><rect x="32" y="160" width="4" height="4"/><rect x="36" y="160" width="4" height="4"/><rect x="40" y="160" width="4" height="4"/><rect x="48" y="160" width="4" height="4"/><rect x="56" y="160" width="4" height="4"/><rect x="60" y="160" width="4" height="4"/><rect x="72" y="160" width="4" height="4"/><rect x="84" y="160" width="4" height="4"/><rect x="92" y="160" width="4" height="4"/><rect x="104" y="160" width="4" height="4"/><rect x="112" y="160" width="4" height="4"/><rect x="116" y="160" width="4" height="4"/><rect x="120" y="160" width="4" height="4"/><rect x="124" y="160" width="4" height="4"/><rect x="132" y="160" width="4" height="4"/><rect x="136" y="160" width="4" height="4"/><rect x="144" y="160" width="4" height="4"/><rect x="148" y="160" width="4" height="4"/><rect x="156" y="160" width="4" height="4"/><rect x="160" y="160" width="4" height="4"/></g></svg>