<svg xmlns="http://www.w3.org/2000/svg" viewBox="0 0 180 180"><rect width="100%" height="100%" fill="#fff"/><g fill="#1c2530"><rect x="16" y="16" width="4" height="4"/><rect x="20" y="16" width="4" height="4"/><rect x="24" y="16" width="4" height="4"/><rect x="28" y="16" width="4" height="4"/><rect x="32" y="16" width="4" height="4"/><rect x="36" y="16" width="4" height="4"/><rect x="40" y="16" width="4" height="4"/><rect x="48" y="16" width="4" height="4"/><rect x="56" y="16" width="4" height="4"/><rect x="64" y="16" width="4" height="4"/><rect x="72" y="16" width="4" height="4"/><rect x="80" y="16" width="4" height="4"/><rect x="84" y="16" width="4" height="4"/><rect x="108" y="16" width="4" height="4"/><rect x="116" y="16" width="4" height="4"/><rect x="120" y="16" width="4" height="4"/><rect x="124" y="16" width="4" height="4"/><rect x="128" y="16" width="4" height="4"/><rect x="136" y="16" width="4" height="4"/><rect x="140" y="16" width="4" height="4"/><rect x="144" y="16" width="4" height="4"/><rect x="148" y="16" width="4" height="4"/><rect x="152" y="16" width="4" height="4"/><rect x="156" y="16" width="4" height="4"/><rect x="160" y="16" width="4" height="4"/><rect x="16" y="20" width="4" height="4"/><rect x="40" y="20" width="4" height="4"/><rect x="56" y="20" width="4" height="4"/><rect x="60" y="20" width="4" height="4"/><rect x="68" y="20" width="4" height="4"/><rect x="76" y="20" width="4" height="4"/><rect x="80" y="20" width="4" height="4"/><rect x="88" y="20" width="4" height="4"/><rect x="92" y="20" width="4" height="4"/><rect x="136" y="20" width="4" height="4"/><rect x="160" y="20" width="4" height="4"/><rect x="16" y="24" width="4" height="4"/><rect x="24" y="24" width="4" height="4"/><rect x="28" y="24" width="4" height="4"/><rect x="32" y="24" width="4" height="4"/><rect x="40" y="24" width="4" height="4"/><rect x="52" y="24" width="4" height="4"/><rect x="60" y="24" width="4" height="4"/><rect x="64" y="24" width="4" height="4"/><rect x="76" y="24" width="4" height="4"/><rect x="80" y="24" width="4" height="4"/><rect x="84" y="24" width="4" height="4"/><rect x="92" y="24" width="4" height="4"/><rect x="100" y="24" width="4" height="4"/><rect x="108" y="24" width="4" height="4"/><rect x="120" y="24" width="4" height="4"/><rect x="124" y="24" width="4" height="4"/><rect x="136" y="24" width="4" height="4"/><rect x="144" y="24" width="4" height="4"/><rect x="148" y="24" width="4" height="4"/><rect x="152" y="24" width="4" height="4"/><rect x="160" y="24" width="4" height="4"/><rect x="16" y="28" width="4" height="4"/><rect x="24" y="28" width="4" height="4"/><rect x="28" y="28" width="4" height="4"/><rect x="32" y="28" width="4" height="4"/><rect x="40" y="28" width="4" height="4"/><rect x="48" y="28" width="4" height="4"/><rect x="56" y="28" width="4" height="4"/><rect x="60" y="28" width="4" height="4"/><rect x="64" y="28" width="4" height="4"/><rect x="68" y="28" width="4" height="4"/><rect x="72" y="28" width="4" height="4"/><rect x="80" y="28" width="4" height="4"/><rect x="116" y="28" width="4" height="4"/><rect x="120" y="28" width="4" height="4"/><rect x="124" y="28" width="4" height="4"/><rect x="128" y="28" width="4" height="4"/><rect x="136" y="28" width="4" height="4"/><rect x="144" y="28" width="4" height="4"/><rect x="148" y="28" width="4" height="4"/><rect x="152" y="28" width="4" height="4"/><rect x="160" y="28" width="4" height="4"/><rect x="16" y="32" width="4" height="4"/><rect x="24" y="32" width="4" height="4"/><rect x="28" y="32" width="4" height="4"/><rect x="32" y="32" width="4" height="4"/><rect x="40" y="32" width="4" height="4"/><rect x="48" y="32" width="4" height="4"/><rect x="56" y="32" width="4" height="4"/><rect x="64" y="32" width="4" height="4"/><rect x="76" y="32" width="4" height="4"/><rect x="80" y="32" width="4" height="4"/><rect x="88" y="32" width="4" height="4"/><rect x="100" y="32" width="4" height="4"/><rect x="104" y="32" width="4" height="4"/><rect x="108" y="32" width="4" height="4"/><rect x="120" y="32" width="4" height="4"/><rect x="124" y="32" width="4" height="4"/><rect x="128" y="32" width="4" height="4"/><rect x="136" y="32" width="4" height="4"/><rect x="144" y="32" width="4" height="4"/><rect x="148" y="32" width="4" height="4"/><rect x="152" y="32" width="4" height="4"/><rect x="160" y="32" width="4" height="4"/><rect x="16" y="36" width="4" height="4"/><rect x="40" y="36" width="4" height="4"/><rect x="48" y="36" width="4" height="4"/><rect x="60" y="36" width="4" height="4"/><rect x="64" y="36" width="4" height="4"/><rect x="72" y="36" width="4" height="4"/><rect x="92" y="36" width="4" height="4"/><rect x="100" y="36" width="4" height="4"/><rect x="104" y="36" width="4" height="4"/><rect x="128" y="36" width="4" height="4"/><rect x="136" y="36" width="4" height="4"/><rect x="160" y="36" width="4" height="4"/><rect x="16" y="40" width="4" height="4"/><rect x="20" y="40" width="4" height="4"/><rect x="24" y="40" width="4" height="4"/><rect x="28" y="40" width="4" height="4"/><rect x="32" y="40" width="4" height="4"/><rect x="36" y="40" width="4" height="4"/><rect x="40" y="40" width="4" height="4"/><rect x="48" y="40" width="4" height="4"/><rect x="56" y="40" width="4" height="4"/><rect x="64" y="40" width="4" height="4"/><rect x="72" y="40" width="4" height="4"/><rect x="80" y="40" width="4" height="4"/><rect x="88" y="40" width="4" height="4"/><rect x="96" y="40" width="4" height="4"/><rect x="104" y="40" width="4" height="4"/><rect x="112" y="40" width="4" height="4"/><rect x="120" y="40" width="4" height="4"/><rect x="128" y="40" width="4" height="4"/><rect x="136" y="40" width="4" height="4"/><rect x="140" y="40" width="4" height="4"/><rect x="144" y="40" width="4" height="4"/><rect x="148" y="40" width="4" height="4"/><rect x="152" y="40" width="4" height="4"/><rect x="156" y="40" width="4" height="4"/><rect x="160" y="40" width="4" height="4"/><rect x="48" y="44" width="4" height="4"/><rect x="68" y="44" width="4" height="4"/><rect x="80" y="44" width="4" height="4"/><rect x="84" y="44" width="4" height="4"/><rect x="92" y="44" width="4" height="4"/><rect x="100" y="44" width="4" height="4"/><rect x="104" y="44" width="4" height="4"/><rect x="108" y="44" width="4" height="4"/><rect x="112" y="44" width="4" height="4"/><rect x="120" y="44" width="4" height="4"/><rect x="16" y="48" width="4" height="4"/><rect x="32" y="48" width="4" height="4"/><rect x="40" y="48" width="4" height="4"/><rect x="44" y="48" width="4" height="4"/><rect x="48" y="48" width="4" height="4"/><rect x="56" y="48" width="4" height="4"/><rect x="60" y="48" width="4" height="4"/><rect x="68" y="48" width="4" height="4"/><rect x="76" y="48" width="4" height="4"/><rect x="88" y="48" width="4" height="4"/><rect x="92" y="48" width="4" height="4"/><rect x="100" y="48" width="4" height="4"/><rect x="104" y="48" width="4" height="4"/><rect x="108" y="48" width="4" height="4"/><rect x="112" y="48" width="4" height="4"/><rect x="124" y="48" width="4" height="4"/><rect x="128" y="48" width="4" height="4"/><rect x="132" y="48" width="4" height="4"/><rect x="136" y="48" width="4" height="4"/><rect x="140" y="48" width="4" height="4"/><rect x="144" y="48" width="4" height="4"/><rect x="148" y="48" width="4" height="4"/><rect x="160" y="48" width="4" height="4"/><rect x="20" y="52" width="4" height="4"/><rect x="24" y="52" width="4" height="4"/><rect x="32" y="52" width="4" height="4"/><rect x="36" y="52" width="4" height="4"/><rect x="44" y="52" width="4" height="4"/><rect x="56" y="52" width="4" height="4"/><rect x="60" y="52" width="4" height="4"/><rect x="64" y="52" width="4" height="4"/><rect x="72" y="52" width="4" height="4"/><rect x="80" y="52" width="4" height="4"/><rect x="84" y="52" width="4" height="4"/><rect x="88" y="52" width="4" height="4"/><rect x="104" y="52" width="4" height="4"/><rect x="108" y="52" width="4" height="4"/><rect x="120" y="52" width="4" height="4"/><rect x="128" y="52" width="4" height="4"/><rect x="136" y="52" width="4" height="4"/><rect x="144" y="52" width="4" height="4"/><rect x="148" y="52" width="4" height="4"/><rect x="156" y="52" width="4" height="4"/><rect x="16" y="56" width="4" height="4"/><rect x="20" y="56" width="4" height="4"/><rect x="36" y="56" width="4" height="4"/><rect x="40" y="56" width="4" height="4"/><rect x="44" y="56" width="4" height="4"/><rect x="48" y="56" width="4" height="4"/><rect x="60" y="56" width="4" height="4"/><rect x="64" y="56" width="4" height="4"/><rect x="68" y="56" width="4" height="4"/><rect x="80" y="56" width="4" height="4"/><rect x="88" y="56" width="4" height="4"/><rect x="96" y="56" width="4" height="4"/><rect x="100" y="56" width="4" height="4"/><rect x="104" y="56" width="4" height="4"/><rect x="108" y="56" width="4" height="4"/><rect x="112" y="56" width="4" height="4"/><rect x="120" y="56" width="4" height="4"/><rect x="124" y="56" width="4" height="4"/><rect x="128" y="56" width="4" height="4"/><rect x="140" y="56" width="4" height="4"/><rect x="152" y="56" width="4" height="4"/><rect x="20" y="60" width="4" height="4"/><rect x="24" y="60" width="4" height="4"/><rect x="32" y="60" width="4" height="4"/><rect x="36" y="60" width="4" height="4"/><rect x="44" y="60" width="4" height="4"/><rect x="48" y="60" width="4" height="4"/><rect x="52" y="60" width="4" height="4"/><rect x="56" y="60" width="4" height="4"/><rect x="60" y="60" width="4" height="4"/><rect x="64" y="60" width="4" height="4"/><rect x="68" y="60" width="4" height="4"/><rect x="84" y="60" width="4" height="4"/><rect x="88" y="60" width="4" height="4"/><rect x="100" y="60" width="4" height="4"/><rect x="104" y="60" width="4" height="4"/><rect x="112" y="60" width="4" height="4"/><rect x="124" y="60" width="4" height="4"/><rect x="128" y="60" width="4" height="4"/><rect x="136" y="60" width="4" height="4"/><rect x="140" y="60" width="4" height="4"/><rect x="144" y="60" width="4" height="4"/><rect x="152" y="60" width="4" height="4"/><rect x="156" y="60" width="4" height="4"/><rect x="16" y="64" width="4" height="4"/><rect x="36" y="64" width="4" height="4"/><rect x="40" y="64" width="4" height="4"/><rect x="44" y="64" width="4" height="4"/><rect x="48" y="64" width="4" height="4"/><rect x="56" y="64" width="4" height="4"/><rect x="72" y="64" width="4" height="4"/><rect x="76" y="64" width="4" height="4"/><rect x="84" y="64" width="4" height="4"/><rect x="88" y="64" width="4" height="4"/><rect x="92" y="64" width="4" height="4"/><rect x="96" y="64" width="4" height="4"/><rect x="100" y="64" width="4" height="4"/><rect x="104" y="64" width="4" height="4"/><rect x="112" y="64" width="4" height="4"/><rect x="132" y="64" width="4" height="4"/><rect x="136" y="64" width="4" height="4"/><rect x="148" y="64" width="4" height="4"/><rect x="152" y="64" width="4" height="4"/><rect x="156" y="64" width="4" height="4"/><rect x="160" y="64" width="4" height="4"/><rect x="28" y="68" width="4" height="4"/><rect x="44" y="68" width="4" height="4"/><rect x="56" y="68" width="4" height="4"/><rect x="60" y="68" width="4" height="4"/><rect x="76" y="68" width="4" height="4"/><rect x="84" y="68" width="4" height="4"/><rect x="100" y="68" width="4" height="4"/><rect x="104" y="68" width="4" height="4"/><rect x="108" y="68" width="4" height="4"/><rect x="120" y="68" width="4" height="4"/><rect x="124" y="68" width="4" height="4"/><rect x="128" y="68" width="4" height="4"/><rect x="132" y="68" width="4" height="4"/><rect x="144" y="68" width="4" height="4"/><rect x="148" y="68" width="4" height="4"/><rect x="20" y="72" width="4" height="4"/><rect x="32" y="72" width="4" height="4"/><rect x="40" y="72" width="4" height="4"/><rect x="44" y="72" width="4" height="4"/><rect x="48" y="72" width="4" height="4"/><rect x="56" y="72" width="4" height="4"/><rect x="64" y="72" width="4" height="4"/><rect x="72" y="72" width="4" height="4"/><rect x="76" y="72" width="4" height="4"/><rect x="88" y="72" width="4" height="4"/><rect x="104" y="72" width="4" height="4"/><rect x="108" y="72" width="4" height="4"/><rect x="112" y="72" width="4" height="4"/><rect x="116" y="72" width="4" height="4"/><rect x="124" y="72" width="4" height="4"/><rect x="132" y="72" width="4" height="4"/><rect x="140" y="72" width="4" height="4"/><rect x="144" y="72" width="4" height="4"/><rect x="148" y="72" width="4" height="4"/><rect x="152" y="72" width="4" height="4"/><rect x="16" y="76" width="4" height="4"/><rect x="36" y="76" width="4" height="4"/><rect x="44" y="76" width="4" height="4"/><rect x="52" y="76" width="4" height="4"/><rect x="56" y="76" width="4" height="4"/><rect x="72" y="76" width="4" height="4"/><rect x="76" y="76" width="4" height="4"/><rect x="80" y="76" width="4" height="4"/><rect x="92" y="76" width="4" height="4"/><rect x="100" y="76" width="4" height="4"/><rect x="104" y="76" width="4" height="4"/><rect x="112" y="76" width="4" height="4"/><rect x="120" y="76" width="4" height="4"/><rect x="140" y="76" width="4" height="4"/><rect x="144" y="76" width="4" height="4"/><rect x="152" y="76" width="4" height="4"/><rect x="16" y="80" width="4" height="4"/><rect x="24" y="80" width="4" height="4"/><rect x="32" y="80" width="4" height="4"/><rect x="40" y="80" width="4" height="4"/><rect x="44" y="80" width="4" height="4"/><rect x="48" y="80" width="4" height="4"/><rect x="52" y="80" width="4" height="4"/><rect x="60" y="80" width="4" height="4"/><rect x="80" y="80" width="4" height="4"/><rect x="92" y="80" width="4" height="4"/><rect x="96" y="80" width="4" height="4"/><rect x="100" y="80" width="4" height="4"/><rect x="104" y="80" width="4" height="4"/><rect x="108" y="80" width="4" height="4"/><rect x="112" y="80" width="4" height="4"/><rect x="124" y="80" width="4" height="4"/><rect x="128" y="80" width="4" height="4"/><rect x="132" y="80" width="4" height="4"/><rect x="136" y="80" width="4" height="4"/><rect x="140" y="80" width="4" height="4"/><rect x="144" y="80" width="4" height="4"/><rect x="148" y="80" width="4" height="4"/><rect x="152" y="80" width="4" height="4"/><rect x="156" y="80" width="4" height="4"/><rect x="160" y="80" width="4" height="4"/><rect x="16" y="84" width="4" height="4"/><rect x="24" y="84" width="4" height="4"/><rect x="36" y="84" width="4" height="4"/><rect x="64" y="84" width="4" height="4"/><rect x="68" y="84" width="4" height="4"/><rect x="72" y="84" width="4" height="4"/><rect x="84" y="84" width="4" height="4"/><rect x="88" y="84" width="4" height="4"/><rect x="116" y="84" width="4" height="4"/><rect x="124" y="84" width="4" height="4"/><rect x="132" y="84" width="4" height="4"/><rect x="136" y="84" width="4" height="4"/><rect x="144" y="84" width="4" height="4"/><rect x="156" y="84" width="4" height="4"/><rect x="20" y="88" width="4" height="4"/><rect x="28" y="88" width="4" height="4"/><rect x="36" y="88" width="4" height="4"/><rect x="40" y="88" width="4" height="4"/><rect x="44" y="88" width="4" height="4"/><rect x="60" y="88" width="4" height="4"/><rect x="64" y="88" width="4" height="4"/><rect x="68" y="88" width="4" height="4"/><rect x="76" y="88" width="4" height="4"/><rect x="88" y="88" width="4" height="4"/><rect x="96" y="88" width="4" height="4"/><rect x="104" y="88" width="4" height="4"/><rect x="108" y="88" width="4" height="4"/><rect x="120" y="88" width="4" height="4"/><rect x="124" y="88" width="4" height="4"/><rect x="128" y="88" width="4" height="4"/><rect x="140" y="88" width="4" height="4"/><rect x="148" y="88" width="4" height="4"/><rect x="20" y="92" width="4" height="4"/><rect x="24" y="92" width="4" height="4"/><rect x="44" y="92" width="4" height="4"/><rect x="48" y="92" width="4" height="4"/><rect x="64" y="92" width="4" height="4"/><rect x="76" y="92" width="4" height="4"/><rect x="80" y="92" width="4" height="4"/><rect x="84" y="92" width="4" height="4"/><rect x="88" y="92" width="4" height="4"/><rect x="96" y="92" width="4" height="4"/><rect x="100" y="92" width="4" height="4"/><rect x="108" y="92" width="4" height="4"/><rect x="120" y="92" width="4" height="4"/><rect x="128" y="92" width="4" height="4"/><rect x="136" y="92" width="4" height="4"/><rect x="144" y="92" width="4" height="4"/><rect x="152" y="92" width="4" height="4"/><rect x="156" y="92" width="4" height="4"/><rect x="36" y="96" width="4" height="4"/><rect x="40" y="96" width="4" height="4"/><rect x="52" y="96" width="4" height="4"/><rect x="68" y="96" width="4" height="4"/><rect x="80" y="96" width="4" height="4"/><rect x="84" y="96" width="4" height="4"/><rect x="92" y="96" width="4" height="4"/><rect x="100" y="96" width="4" height="4"/><rect x="112" y="96" width="4" height="4"/><rect x="120" y="96" width="4" height="4"/><rect x="132" y="96" width="4" height="4"/><rect x="136" y="96" width="4" height="4"/><rect x="140" y="96" width="4" height="4"/><rect x="148" y="96" width="4" height="4"/><rect x="152" y="96" width="4" height="4"/><rect x="28" y="100" width="4" height="4"/><rect x="32" y="100" width="4" height="4"/><rect x="36" y="100" width="4" height="4"/><rect x="52" y="100" width="4" height="4"/><rect x="72" y="100" width="4" height="4"/><rect x="76" y="100" width="4" height="4"/><rect x="88" y="100" width="4" height="4"/><rect x="108" y="100" width="4" height="4"/><rect x="112" y="100" width="4" height="4"/><rect x="120" y="100" width="4" height="4"/><rect x="124" y="100" width="4" height="4"/><rect x="128" y="100" width="4" height="4"/><rect x="132" y="100" width="4" height="4"/><rect x="140" y="100" width="4" height="4"/><rect x="144" y="100" width="4" height="4"/><rect x="156" y="100" width="4" height="4"/><rect x="28" y="104" width="4" height="4"/><rect x="36" y="104" width="4" height="4"/><rect x="40" y="104" width="4" height="4"/><rect x="44" y="104" width="4" height="4"/><rect x="60" y="104" width="4" height="4"/><rect x="68" y="104" width="4" height="4"/><rect x="72" y="104" width="4" height="4"/><rect x="76" y="104" width="4" height="4"/><rect x="84" y="104" width="4" height="4"/><rect x="96" y="104" width="4" height="4"/><rect x="100" y="104" width="4" height="4"/><rect x="104" y="104" width="4" height="4"/><rect x="108" y="104" width="4" height="4"/><rect x="112" y="104" width="4" height="4"/><rect x="124" y="104" width="4" height="4"/><rect x="132" y="104" width="4" height="4"/><rect x="140" y="104" width="4" height="4"/><rect x="144" y="104" width="4" height="4"/><rect x="148" y="104" width="4" height="4"/><rect x="152" y="104" width="4" height="4"/><rect x="24" y="108" width="4" height="4"/><rect x="36" y="108" width="4" height="4"/><rect x="44" y="108" width="4" height="4"/><rect x="48" y="108" width="4" height="4"/><rect x="52" y="108" width="4" height="4"/><rect x="56" y="108" width="4" height="4"/><rect x="60" y="108" width="4" height="4"/><rect x="68" y="108" width="4" height="4"/><rect x="76" y="108" width="4" height="4"/><rect x="84" y="108" width="4" height="4"/><rect x="88" y="108" width="4" height="4"/><rect x="100" y="108" width="4" height="4"/><rect x="108" y="108" width="4" height="4"/><rect x="112" y="108" width="4" height="4"/><rect x="120" y="108" width="4" height="4"/><rect x="132" y="108" width="4" height="4"/><rect x="136" y="108" width="4" height="4"/><rect x="140" y="108" width="4" height="4"/><rect x="144" y="108" width="4" height="4"/><rect x="152" y="108" width="4" height="4"/><rect x="20" y="112" width="4" height="4"/><rect x="24" y="112" width="4" height="4"/><rect x="28" y="112" width="4" height="4"/><rect x="40" y="112" width="4" height="4"/><rect x="44" y="112" width="4" height="4"/><rect x="48" y="112" width="4" height="4"/><rect x="52" y="112" width="4" height="4"/><rect x="64" y="112" width="4" height="4"/><rect x="68" y="112" width="4" height="4"/><rect x="76" y="112" width="4" height="4"/><rect x="88" y="112" width="4" height="4"/><rect x="92" y="112" width="4" height="4"/><rect x="96" y="112" width="4" height="4"/><rect x="100" y="112" width="4" height="4"/><rect x="108" y="112" width="4" height="4"/><rect x="128" y="112" width="4" height="4"/><rect x="132" y="112" width="4" height="4"/><rect x="136" y="112" width="4" height="4"/><rect x="140" y="112" width="4" height="4"/><rect x="144" y="112" width="4" height="4"/><rect x="148" y="112" width="4" height="4"/><rect x="152" y="112" width="4" height="4"/><rect x="160" y="112" width="4" height="4"/><rect x="16" y="116" width="4" height="4"/><rect x="32" y="116" width="4" height="4"/><rect x="52" y="116" width="4" height="4"/><rect x="56" y="116" width="4" height="4"/><rect x="60" y="116" width="4" height="4"/><rect x="72" y="116" width="4" height="4"/><rect x="80" y="116" width="4" height="4"/><rect x="92" y="116" width="4" height="4"/><rect x="100" y="116" width="4" height="4"/><rect x="108" y="116" width="4" height="4"/><rect x="112" y="116" width="4" height="4"/><rect x="120" y="116" width="4" height="4"/><rect x="124" y="116" width="4" height="4"/><rect x="132" y="116" width="4" height="4"/><rect x="136" y="116" width="4" height="4"/><rect x="144" y="116" width="4" height="4"/><rect x="152" y="116" width="4" height="4"/><rect x="40" y="120" width="4" height="4"/><rect x="52" y="120" width="4" height="4"/><rect x="56" y="120" width="4" height="4"/><rect x="60" y="120" width="4" height="4"/><rect x="64" y="120" width="4" height="4"/><rect x="80" y="120" width="4" height="4"/><rect x="84" y="120" width="4" height="4"/><rect x="108" y="120" width="4" height="4"/><rect x="116" y="120" width="4" height="4"/><rect x="120" y="120" width="4" height="4"/><rect x="124" y="120" width="4" height="4"/><rect x="140" y="120" width="4" height="4"/><rect x="152" y="120" width="4" height="4"/><rect x="24" y="124" width="4" height="4"/><rect x="28" y="124" width="4" height="4"/><rect x="32" y="124" width="4" height="4"/><rect x="36" y="124" width="4" height="4"/><rect x="52" y="124" width="4" height="4"/><rect x="84" y="124" width="4" height="4"/><rect x="88" y="124" width="4" height="4"/><rect x="100" y="124" width="4" height="4"/><rect x="124" y="124" width="4" height="4"/><rect x="136" y="124" width="4" height="4"/><rect x="140" y="124" width="4" height="4"/><rect x="144" y="124" width="4" height="4"/><rect x="148" y="124" width="4" height="4"/><rect x="152" y="124" width="4" height="4"/><rect x="16" y="128" width="4" height="4"/><rect x="20" y="128" width="4" height="4"/><rect x="24" y="128" width="4" height="4"/><rect x="36" y="128" width="4" height="4"/><rect x="40" y="128" width="4" height="4"/><rect x="44" y="128" width="4" height="4"/><rect x="48" y="128" width="4" height="4"/><rect x="52" y="128" width="4" height="4"/><rect x="60" y="128" width="4" height="4"/><rect x="64" y="128" width="4" height="4"/><rect x="72" y="128" width="4" height="4"/><rect x="76" y="128" width="4" height="4"/><rect x="80" y="128" width="4" height="4"/><rect x="84" y="128" width="4" height="4"/><rect x="92" y="128" width="4" height="4"/><rect x="96" y="128" width="4" height="4"/><rect x="100" y="128" width="4" height="4"/><rect x="104" y="128" width="4" height="4"/><rect x="112" y="128" width="4" height="4"/><rect x="128" y="128" width="4" height="4"/><rect x="132" y="128" width="4" height="4"/><rect x="136" y="128" width="4" height="4"/><rect x="140" y="128" width="4" height="4"/><rect x="144" y="128" width="4" height="4"/><rect x="148" y="128" width="4" height="4"/><rect x="152" y="128" width="4" height="4"/><rect x="156" y="128" width="4" height="4"/><rect x="48" y="132" width="4" height="4"/><rect x="56" y="132" width="4" height="4"/><rect x="64" y="132" width="4" height="4"/><rect x="68" y="132" width="4" height="4"/><rect x="72" y="132" width="4" height="4"/><rect x="76" y="132" width="4" height="4"/><rect x="84" y="132" width="4" height="4"/><rect x="104" y="132" width="4" height="4"/><rect x="108" y="132" width="4" height="4"/><rect x="120" y="132" width="4" height="4"/><rect x="128" y="132" width="4" height="4"/><rect x="144" y="132" width="4" height="4"/><rect x="156" y="132" width="4" height="4"/><rect x="16" y="136" width="4" height="4"/><rect x="20" y="136" width="4" height="4"/><rect x="24" y="136" width="4" height="4"/><rect x="28" y="136" width="4" height="4"/><rect x="32" y="136" width="4" height="4"/><rect x="36" y="136" width="4" height="4"/><rect x="40" y="136" width="4" height="4"/><rect x="48" y="136" width="4" height="4"/><rect x="64" y="136" width="4" height="4"/><rect x="68" y="136" width="4" height="4"/><rect x="72" y="136" width="4" height="4"/><rect x="76" y="136" width="4" height="4"/><rect x="88" y="136" width="4" height="4"/><rect x="96" y="136" width="4" height="4"/><rect x="100" y="136" width="4" height="4"/><rect x="108" y="136" width="4" height="4"/><rect x="112" y="136" width="4" height="4"/><rect x="116" y="136" width="4" height="4"/><rect x="120" y="136" width="4" height="4"/><rect x="128" y="136" width="4" height="4"/><rect x="136" y="136" width="4" height="4"/><rect x="144" y="136" width="4" height="4"/><rect x="16" y="140" width="4" height="4"/><rect x="40" y="140" width="4" height="4"/><rect x="52" y="140" width="4" height="4"/><rect x="56" y="140" width="4" height="4"/><rect x="60" y="140" width="4" height="4"/><rect x="64" y="140" width="4" height="4"/><rect x="72" y="140" width="4" height="4"/><rect x="76" y="140" width="4" height="4"/><rect x="80" y="140" width="4" height="4"/><rect x="96" y="140" width="4" height="4"/><rect x="100" y="140" width="4" height="4"/><rect x="112" y="140" width="4" height="4"/><rect x="120" y="140" width="4" height="4"/><rect x="128" y="140" width="4" height="4"/><rect x="144" y="140" width="4" height="4"/><rect x="148" y="140" width="4" height="4"/><rect x="152" y="140" width="4" height="4"/><rect x="156" y="140" width="4" height="4"/><rect x="160" y="140" width="4" height="4"/><rect x="16" y="144" width="4" height="4"/><rect x="24" y="144" width="4" height="4"/><rect x="28" y="144" width="4" height="4"/><rect x="32" y="144" width="4" height="4"/><rect x="40" y="144" width="4" height="4"/><rect x="48" y="144" width="4" height="4"/><rect x="64" y="144" width="4" height="4"/><rect x="72" y="144" width="4" height="4"/><rect x="76" y="144" width="4" height="4"/><rect x="80" y="144" width="4" height="4"/><rect x="92" y="144" width="4" height="4"/><rect x="100" y="144" width="4" height="4"/><rect x="108" y="144" width="4" height="4"/><rect x="120" y="144" width="4" height="4"/><rect x="128" y="144" width="4" height="4"/><rect x="132" y="144" width="4" height="4"/><rect x="136" y="144" width="4" height="4"/><rect x="140" y="144" width="4" height="4"/><rect x="144" y="144" width="4" height="4"/><rect x="148" y="144" width="4" height="4"/><rect x="152" y="144" width="4" height="4"/><rect x="156" y="144" width="4" height="4"/><rect x="160" y="144" width="4" height="4"/><rect x="16" y="148" width="4" height="4"/><rect x="24" y="148" width="4" height="4"/><rect x="28" y="148" width="4" height="4"/><rect x="32" y="148" width="4" height="4"/><rect x="40" y="148" width="4" height="4"/><rect x="60" y="148" width="4" height="4"/><rect x="68" y="148" width="4" height="4"/><rect x="88" y="148" width="4" height="4"/><rect x="96" y="148" width="4" height="4"/><rect x="104" y="148" width="4" height="4"/><rect x="108" y="148" width="4" height="4"/><rect x="112" y="148" width="4" height="4"/><rect x="116" y="148" width="4" height="4"/><rect x="120" y="148" width="4" height="4"/><rect x="128" y="148" width="4" height="4"/><rect x="136" y="148" width="4" height="4"/><rect x="140" y="148" width="4" height="4"/><rect x="148" y="148" width="4" height="4"/><rect x="152" y="148" width="4" height="4"/><rect x="160" y="148" width="4" height="4"/><rect x="16" y="152" width="4" height="4"/><rect x="24" y="152" width="4" height="4"/><rect x="28" y="152" width="4" height="4"/><rect x="32" y="152" width="4" height="4"/><rect x="40" y="152" width="4" height="4"/><rect x="56" y="152" width="4" height="4"/><rect x="60" y="152" width="4" height="4"/><rect x="64" y="152" width="4" height="4"/><rect x="72" y="152" width="4" height="4"/><rect x="76" y="152" width="4" height="4"/><rect x="84" y="152" width="4" height="4"/><rect x="104" y="152" width="4" height="4"/><rect x="108" y="152" width="4" height="4"/><rect x="112" y="152" width="4" height="4"/><rect x="116" y="152" width="4" height="4"/><rect x="132" y="152" width="4" height="4"/><rect x="136" y="152" width="4" height="4"/><rect x="152" y="152" width="4" height="4"/><rect x="16" y="156" width="4" height="4"/><rect x="40" y="156" width="4" height="4"/><rect x="64" y="156" width="4" height="4"/><rect x="68" y="156" width="4" height="4"/><rect x="72" y="156" width="4" height="4"/><rect x="76" y="156" width="4" height="4"/><rect x="80" y="156" width="4" height="4"/><rect x="84" y="156" width="4" height="4"/><rect x="92" y="156" width="4" height="4"/><rect x="100" y="156" width="4" height="4"/><rect x="108" y="156" width="4" height="4"/><rect x="112" y="156" width="4" height="4"/><rect x="120" y="156" width="4" height="4"/><rect x="124" y="156" width="4" height="4"/><rect x="144" y="156" width="4" height="4"/><rect x="152" y="156" width="4" height="4"/><rect x="156" y="156" width="4" height="4"/><rect x="16" y="160" width="4" height="4"/><rect x="20" y="160" width="4" height="4"/><rect x="24" y="160" width="4" height="4"/><rect x="28" y="160" width="4" height="4"/><rect x="32" y="160" width="4" height="4"/><rect x="36" y="160" width="4" height="4"/><rect x="40" y="160" width="4" height="4"/><rect x="48" y="160" width="4" height="4"/><rect x="52" y="160" width="4" height="4"/><rect x="64" y="160" width="4" height="4"/><rect x="72" y="160" width="4" height="4"/><rect x="84" y="160" width="4" height="4"/><rect x="92" y="160" width="4" height="4"/><rect x="96" y="160" width="4" height="4"/><rect x="100" y="160" width="4" height="4"/><rect x="104" y="160" width="4" height="4"/><rect x="112" y="160" width="4" height="4"/><rect x="132" y="160" width="4" height="4"/><rect x="136" y="160" width="4" height="4"/><rect x="140" y="160" width="4" height="4"/><rect x="156" y="160" width="4" height="4"/><rect x="160" y="160" width="4" height="4"/></g></svg>